<mxfile host="Electron" agent="Mozilla/5.0 (Windows NT 10.0; Win64; x64) AppleWebKit/537.36 (KHTML, like Gecko) draw.io/28.1.2 Chrome/138.0.7204.243 Electron/37.4.0 Safari/537.36" version="28.1.2" pages="2">
  <diagram name="Home page" id="ALg_N9gkJqXC8fDnKJJI">
    <mxGraphModel dx="1226" dy="736" grid="1" gridSize="10" guides="1" tooltips="1" connect="1" arrows="1" fold="1" page="1" pageScale="1" pageWidth="827" pageHeight="1169" math="0" shadow="0">
      <root>
        <mxCell id="0" />
        <mxCell id="1" parent="0" />
        <mxCell id="gTZ2yy84FCpYhbiJK8Lw-1" value="&lt;font style=&quot;font-size: 36px;&quot;&gt;TITLE&lt;/font&gt;" style="rounded=0;whiteSpace=wrap;html=1;" vertex="1" parent="1">
          <mxGeometry x="80" y="40" width="680" height="120" as="geometry" />
        </mxCell>
        <mxCell id="gTZ2yy84FCpYhbiJK8Lw-2" value="&lt;font style=&quot;font-size: 36px;&quot;&gt;INTRODUCTION&lt;/font&gt;" style="rounded=0;whiteSpace=wrap;html=1;" vertex="1" parent="1">
          <mxGeometry x="80" y="190" width="680" height="250" as="geometry" />
        </mxCell>
        <mxCell id="gTZ2yy84FCpYhbiJK8Lw-3" value="&lt;font style=&quot;font-size: 36px;&quot;&gt;FOOTER&lt;/font&gt;" style="rounded=0;whiteSpace=wrap;html=1;" vertex="1" parent="1">
          <mxGeometry x="80" y="950" width="680" height="170" as="geometry" />
        </mxCell>
        <mxCell id="gTZ2yy84FCpYhbiJK8Lw-4" value="&lt;font style=&quot;font-size: 36px;&quot;&gt;PROJECT IDEA&lt;/font&gt;" style="rounded=0;whiteSpace=wrap;html=1;" vertex="1" parent="1">
          <mxGeometry x="80" y="470" width="680" height="320" as="geometry" />
        </mxCell>
        <mxCell id="Fj-DTqgujxVaatnMNImo-1" value="ENTER BUTTON" style="ellipse;whiteSpace=wrap;html=1;aspect=fixed;" vertex="1" parent="1">
          <mxGeometry x="600" y="800" width="110" height="110" as="geometry" />
        </mxCell>
        <mxCell id="Fj-DTqgujxVaatnMNImo-2" value="" style="shape=flexArrow;endArrow=classic;html=1;rounded=0;" edge="1" parent="1">
          <mxGeometry width="50" height="50" relative="1" as="geometry">
            <mxPoint x="380" y="900" as="sourcePoint" />
            <mxPoint x="580" y="870" as="targetPoint" />
          </mxGeometry>
        </mxCell>
      </root>
    </mxGraphModel>
  </diagram>
  <diagram id="tFA3f5d6MHGzemvHsnTp" name="History">
    <mxGraphModel dx="802" dy="482" grid="1" gridSize="10" guides="1" tooltips="1" connect="1" arrows="1" fold="1" page="1" pageScale="1" pageWidth="827" pageHeight="1169" math="0" shadow="0">
      <root>
        <mxCell id="0" />
        <mxCell id="1" parent="0" />
        <mxCell id="OQOhqiW9sA04Y5oYiPM--1" value="&lt;font style=&quot;font-size: 36px;&quot;&gt;HISTORY&lt;/font&gt;" style="rounded=0;whiteSpace=wrap;html=1;" vertex="1" parent="1">
          <mxGeometry x="80" y="40" width="680" height="160" as="geometry" />
        </mxCell>
        <mxCell id="OQOhqiW9sA04Y5oYiPM--2" value="&lt;font style=&quot;font-size: 36px;&quot;&gt;FOOTER&lt;/font&gt;" style="rounded=0;whiteSpace=wrap;html=1;" vertex="1" parent="1">
          <mxGeometry x="80" y="950" width="680" height="160" as="geometry" />
        </mxCell>
        <mxCell id="OQOhqiW9sA04Y5oYiPM--3" value="" style="rounded=0;whiteSpace=wrap;html=1;" vertex="1" parent="1">
          <mxGeometry x="80" y="240" width="680" height="670" as="geometry" />
        </mxCell>
        <mxCell id="OQOhqiW9sA04Y5oYiPM--4" value="" style="rounded=0;whiteSpace=wrap;html=1;" vertex="1" parent="1">
          <mxGeometry x="110" y="280" width="180" height="140" as="geometry" />
        </mxCell>
        <mxCell id="rTftvakde_ws6v0pLod--1" value="&lt;font style=&quot;font-size: 36px;&quot;&gt;TEXT&lt;/font&gt;" style="text;html=1;align=center;verticalAlign=middle;whiteSpace=wrap;rounded=0;" vertex="1" parent="1">
          <mxGeometry x="520" y="350" width="60" height="30" as="geometry" />
        </mxCell>
        <mxCell id="rTftvakde_ws6v0pLod--5" value="" style="rounded=0;whiteSpace=wrap;html=1;" vertex="1" parent="1">
          <mxGeometry x="520" y="440" width="180" height="140" as="geometry" />
        </mxCell>
        <mxCell id="rTftvakde_ws6v0pLod--6" value="&lt;font style=&quot;font-size: 36px;&quot;&gt;TEXT&lt;/font&gt;" style="text;html=1;align=center;verticalAlign=middle;whiteSpace=wrap;rounded=0;" vertex="1" parent="1">
          <mxGeometry x="230" y="495" width="60" height="30" as="geometry" />
        </mxCell>
        <mxCell id="rTftvakde_ws6v0pLod--7" value="" style="rounded=0;whiteSpace=wrap;html=1;" vertex="1" parent="1">
          <mxGeometry x="110" y="600" width="180" height="140" as="geometry" />
        </mxCell>
        <mxCell id="0HXWaMQubce4Rvc3MGXh-1" value="&lt;font style=&quot;font-size: 36px;&quot;&gt;TEXT&lt;/font&gt;" style="text;html=1;align=center;verticalAlign=middle;whiteSpace=wrap;rounded=0;" vertex="1" parent="1">
          <mxGeometry x="560" y="660" width="60" height="30" as="geometry" />
        </mxCell>
        <mxCell id="0HXWaMQubce4Rvc3MGXh-2" value="" style="rounded=0;whiteSpace=wrap;html=1;" vertex="1" parent="1">
          <mxGeometry x="520" y="740" width="180" height="140" as="geometry" />
        </mxCell>
        <mxCell id="0HXWaMQubce4Rvc3MGXh-3" value="&lt;font style=&quot;font-size: 36px;&quot;&gt;TEXT&lt;/font&gt;" style="text;html=1;align=center;verticalAlign=middle;whiteSpace=wrap;rounded=0;" vertex="1" parent="1">
          <mxGeometry x="200" y="810" width="60" height="30" as="geometry" />
        </mxCell>
      </root>
    </mxGraphModel>
  </diagram>
</mxfile>
